<svg width="21" height="23" viewBox="0 0 21 23" fill="none" xmlns="http://www.w3.org/2000/svg">
<path d="M5.4152 14.0826C5.10039 14.0826 4.8365 13.9761 4.62354 13.7631C4.41057 13.5502 4.30409 13.2863 4.30409 12.9715C4.30409 12.6567 4.41057 12.3928 4.62354 12.1798C4.8365 11.9668 5.10039 11.8604 5.4152 11.8604C5.73002 11.8604 5.99391 11.9668 6.20687 12.1798C6.41983 12.3928 6.52631 12.6567 6.52631 12.9715C6.52631 13.2863 6.41983 13.5502 6.20687 13.7631C5.99391 13.9761 5.73002 14.0826 5.4152 14.0826ZM10.3319 14.0826C10.0171 14.0826 9.75317 13.9761 9.5402 13.7631C9.32724 13.5502 9.22076 13.2863 9.22076 12.9715C9.22076 12.6567 9.32724 12.3928 9.5402 12.1798C9.75317 11.9668 10.0171 11.8604 10.3319 11.8604C10.6467 11.8604 10.9106 11.9668 11.1235 12.1798C11.3365 12.3928 11.443 12.6567 11.443 12.9715C11.443 13.2863 11.3365 13.5502 11.1235 13.7631C10.9106 13.9761 10.6467 14.0826 10.3319 14.0826ZM15.0541 14.0826C14.7393 14.0826 14.4754 13.9761 14.2624 13.7631C14.0495 13.5502 13.943 13.2863 13.943 12.9715C13.943 12.6567 14.0495 12.3928 14.2624 12.1798C14.4754 11.9668 14.7393 11.8604 15.0541 11.8604C15.3689 11.8604 15.6328 11.9668 15.8458 12.1798C16.0587 12.3928 16.1652 12.6567 16.1652 12.9715C16.1652 13.2863 16.0587 13.5502 15.8458 13.7631C15.6328 13.9761 15.3689 14.0826 15.0541 14.0826ZM1.9152 22.8048C1.47076 22.8048 1.08187 22.6381 0.748535 22.3048C0.415202 21.9715 0.248535 21.5826 0.248535 21.1381V3.91591C0.248535 3.47147 0.415202 3.08258 0.748535 2.74925C1.08187 2.41591 1.47076 2.24925 1.9152 2.24925H3.72076V0.582581H5.52631V2.24925H14.9708V0.582581H16.7763V2.24925H18.5819C19.0263 2.24925 19.4152 2.41591 19.7485 2.74925C20.0819 3.08258 20.2485 3.47147 20.2485 3.91591V21.1381C20.2485 21.5826 20.0819 21.9715 19.7485 22.3048C19.4152 22.6381 19.0263 22.8048 18.5819 22.8048H1.9152ZM1.9152 21.1381H18.5819V9.19369H1.9152V21.1381ZM1.9152 7.52702H18.5819V3.91591H1.9152V7.52702ZM1.9152 7.52702V3.91591V7.52702Z" fill="#6EE0DE"/>
</svg>
