<svg width="30" height="15" viewBox="0 0 30 15" fill="none" xmlns="http://www.w3.org/2000/svg">
<path d="M12.4312 7.828C12.0178 7.828 11.6783 7.67053 11.4126 7.35558C11.1468 7.04064 11.0533 6.68632 11.1321 6.29264L11.575 3.63527C11.7324 2.78885 12.131 2.09499 12.7708 1.55367C13.4105 1.01236 14.1536 0.741699 15 0.741699C15.8661 0.741699 16.619 1.01236 17.2588 1.55367C17.8985 2.09499 18.2971 2.78885 18.4546 3.63527L18.8975 6.29264C18.9762 6.68632 18.8827 7.04064 18.617 7.35558C18.3512 7.67053 18.0117 7.828 17.5983 7.828H12.4312ZM12.9627 6.05643H17.0668L16.7125 3.93054C16.6338 3.51717 16.4369 3.17762 16.122 2.91188C15.8071 2.64614 15.4429 2.51328 15.0295 2.51328C14.5965 2.51328 14.2225 2.64614 13.9075 2.91188C13.5926 3.17762 13.3957 3.51717 13.317 3.93054L12.9627 6.05643ZM4.93154 9.92437C4.53786 9.94405 4.19339 9.86532 3.89812 9.68816C3.60286 9.511 3.41586 9.24526 3.33713 8.89095C3.29776 8.73347 3.29284 8.576 3.32236 8.41853C3.35189 8.26105 3.39618 8.11342 3.45523 7.97563C3.45523 7.99532 3.44539 7.95595 3.4257 7.85753C3.36665 7.77879 3.31252 7.68529 3.26331 7.57703C3.2141 7.46877 3.17965 7.35558 3.15997 7.23748C3.1206 7.02095 3.14028 6.82903 3.21902 6.66172C3.29776 6.4944 3.41586 6.33201 3.57334 6.17453L3.63239 6.11548C3.67176 5.78085 3.80955 5.50527 4.04576 5.28874C4.28197 5.07222 4.56739 4.96395 4.90202 4.96395C4.9217 4.96395 5.07917 4.99348 5.37444 5.05253L5.46302 5.02301C5.56144 4.94427 5.67462 4.8803 5.80257 4.83109C5.93052 4.78188 6.07323 4.75727 6.2307 4.75727C6.40786 4.75727 6.57517 4.79172 6.73265 4.86061C6.89012 4.92951 7.00822 5.02301 7.08696 5.14111C7.10665 5.14111 7.12141 5.14603 7.13125 5.15588C7.14109 5.16572 7.15586 5.17064 7.17554 5.17064C7.41175 5.19032 7.61843 5.26414 7.79559 5.39209C7.97275 5.52003 8.11054 5.69227 8.20896 5.9088C8.24833 6.0269 8.26309 6.14501 8.25325 6.26311C8.24341 6.38122 8.2188 6.48948 8.17943 6.5879C8.17943 6.62727 8.18927 6.65679 8.20896 6.67648C8.32706 6.79458 8.42056 6.92745 8.48946 7.07508C8.55835 7.22271 8.5928 7.37527 8.5928 7.53274C8.5928 7.57211 8.54359 7.74927 8.44517 8.06421C8.42549 8.10358 8.42549 8.14295 8.44517 8.18232C8.46485 8.26106 8.4747 8.39884 8.4747 8.59569C8.4747 8.95 8.32706 9.26003 8.0318 9.52576C7.73654 9.7915 7.37238 9.92437 6.93933 9.92437H4.93154ZM24.6846 9.89484C24.1138 9.89484 23.6266 9.69308 23.2231 9.28955C22.8195 8.88603 22.6178 8.39884 22.6178 7.828C22.6178 7.61148 22.6522 7.40971 22.7211 7.22271C22.79 7.03572 22.8737 6.86348 22.9721 6.70601L22.2339 6.05643C22.0765 5.89895 22.0469 5.7218 22.1454 5.52495C22.2438 5.32811 22.4013 5.22969 22.6178 5.22969H24.6846C25.2555 5.22969 25.7426 5.43145 26.1462 5.83498C26.5497 6.23851 26.7515 6.72569 26.7515 7.29653V7.828C26.7515 8.39884 26.5497 8.88603 26.1462 9.28955C25.7426 9.69308 25.2555 9.89484 24.6846 9.89484ZM0.827393 14.9143V13.3494C0.827393 12.5817 1.24076 11.9617 2.0675 11.4893C2.89423 11.0168 3.95718 10.7806 5.25633 10.7806C5.51223 10.7806 5.74844 10.7856 5.96496 10.7954C6.18149 10.8052 6.39802 10.8298 6.61454 10.8692C6.45707 11.2038 6.33896 11.5434 6.26023 11.8879C6.18149 12.2323 6.14212 12.6014 6.14212 12.9951V14.9143H0.827393ZM7.9137 14.9143V12.9951C7.9137 11.7156 8.5682 10.6822 9.87719 9.89484C11.1862 9.10747 12.8938 8.71379 15 8.71379C17.1259 8.71379 18.8384 9.10747 20.1376 9.89484C21.4367 10.6822 22.0863 11.7156 22.0863 12.9951V14.9143H7.9137ZM24.7437 10.7806C26.0822 10.7806 27.155 11.0168 27.962 11.4893C28.7691 11.9617 29.1726 12.5817 29.1726 13.3494V14.9143H23.8579V12.9951C23.8579 12.6014 23.8234 12.2323 23.7545 11.8879C23.6856 11.5434 23.5725 11.2038 23.415 10.8692C23.6315 10.8298 23.848 10.8052 24.0646 10.7954C24.2811 10.7856 24.5075 10.7806 24.7437 10.7806ZM15 10.4854C13.4253 10.4854 12.1458 10.7216 11.1616 11.194C10.1774 11.6664 9.68527 12.2668 9.68527 12.9951V13.1427H20.3147V12.9656C20.3147 12.2569 19.8275 11.6664 18.8532 11.194C17.8788 10.7216 16.5944 10.4854 15 10.4854Z" fill="#6EE0DE"/>
</svg>
