<svg width="20" height="17" viewBox="0 0 20 17" fill="none" xmlns="http://www.w3.org/2000/svg">
<mask id="path-1-inside-1_3_393" fill="white">
<path d="M1.50006 16.5826C1.10006 16.5826 0.750061 16.4326 0.450061 16.1326C0.150061 15.8326 6.10352e-05 15.4826 6.10352e-05 15.0826V2.08258C6.10352e-05 1.68258 0.150061 1.33258 0.450061 1.03258C0.750061 0.73258 1.10006 0.582581 1.50006 0.582581H18.5001C18.9001 0.582581 19.2501 0.73258 19.5501 1.03258C19.8501 1.33258 20.0001 1.68258 20.0001 2.08258V15.0826C20.0001 15.4826 19.8501 15.8326 19.5501 16.1326C19.2501 16.4326 18.9001 16.5826 18.5001 16.5826H1.50006ZM10.0001 9.03258L1.50006 3.45758V15.0826H18.5001V3.45758L10.0001 9.03258ZM10.0001 7.53258L18.4001 2.08258H1.62506L10.0001 7.53258ZM1.50006 3.45758V2.08258V3.45758V15.0826V3.45758Z"/>
</mask>
<path d="M1.50006 16.5826C1.10006 16.5826 0.750061 16.4326 0.450061 16.1326C0.150061 15.8326 6.10352e-05 15.4826 6.10352e-05 15.0826V2.08258C6.10352e-05 1.68258 0.150061 1.33258 0.450061 1.03258C0.750061 0.73258 1.10006 0.582581 1.50006 0.582581H18.5001C18.9001 0.582581 19.2501 0.73258 19.5501 1.03258C19.8501 1.33258 20.0001 1.68258 20.0001 2.08258V15.0826C20.0001 15.4826 19.8501 15.8326 19.5501 16.1326C19.2501 16.4326 18.9001 16.5826 18.5001 16.5826H1.50006ZM10.0001 9.03258L1.50006 3.45758V15.0826H18.5001V3.45758L10.0001 9.03258ZM10.0001 7.53258L18.4001 2.08258H1.62506L10.0001 7.53258ZM1.50006 3.45758V2.08258V3.45758V15.0826V3.45758Z" fill="#6EE0DE"/>
<path d="M10.0001 9.03258L8.90318 10.705L10.0001 11.4244L11.0969 10.705L10.0001 9.03258ZM1.50006 3.45758L2.59694 1.7852L-0.499939 -0.245988V3.45758H1.50006ZM1.50006 15.0826H-0.499939V17.0826H1.50006V15.0826ZM18.5001 15.0826V17.0826H20.5001V15.0826H18.5001ZM18.5001 3.45758H20.5001V-0.245988L17.4032 1.7852L18.5001 3.45758ZM10.0001 7.53258L8.90921 9.2089L9.99844 9.91771L11.0886 9.21038L10.0001 7.53258ZM18.4001 2.08258L19.4886 3.76038L25.1572 0.0825806H18.4001V2.08258ZM1.62506 2.08258V0.0825806H-5.11518L0.534205 3.7589L1.62506 2.08258ZM1.50006 14.5826C1.557 14.5826 1.63897 14.5947 1.7254 14.6318C1.80952 14.6678 1.85487 14.709 1.86427 14.7184L-0.964152 17.5468C-0.314332 18.1966 0.534951 18.5826 1.50006 18.5826V14.5826ZM1.86427 14.7184C1.87368 14.7278 1.9148 14.7731 1.95085 14.8572C1.98789 14.9437 2.00006 15.0256 2.00006 15.0826H-1.99994C-1.99994 16.0477 -1.61397 16.897 -0.964152 17.5468L1.86427 14.7184ZM2.00006 15.0826V2.08258H-1.99994V15.0826H2.00006ZM2.00006 2.08258C2.00006 2.13952 1.98789 2.22148 1.95085 2.30792C1.9148 2.39204 1.87368 2.43739 1.86427 2.44679L-0.964152 -0.381633C-1.61397 0.268189 -1.99994 1.11747 -1.99994 2.08258H2.00006ZM1.86427 2.44679C1.85487 2.4562 1.80952 2.49732 1.7254 2.53337C1.63896 2.57041 1.557 2.58258 1.50006 2.58258V-1.41742C0.534955 -1.41742 -0.31433 -1.03146 -0.964152 -0.381633L1.86427 2.44679ZM1.50006 2.58258H18.5001V-1.41742H1.50006V2.58258ZM18.5001 2.58258C18.4431 2.58258 18.3612 2.57041 18.2747 2.53337C18.1906 2.49732 18.1453 2.4562 18.1358 2.44679L20.9643 -0.381633C20.3145 -1.03145 19.4652 -1.41742 18.5001 -1.41742V2.58258ZM18.1358 2.44679C18.1264 2.43739 18.0853 2.39204 18.0493 2.30792C18.0122 2.22149 18.0001 2.13952 18.0001 2.08258H22.0001C22.0001 1.11747 21.6141 0.268187 20.9643 -0.381633L18.1358 2.44679ZM18.0001 2.08258V15.0826H22.0001V2.08258H18.0001ZM18.0001 15.0826C18.0001 15.0256 18.0122 14.9437 18.0493 14.8572C18.0853 14.7731 18.1264 14.7278 18.1358 14.7184L20.9643 17.5468C21.6141 16.897 22.0001 16.0477 22.0001 15.0826H18.0001ZM18.1358 14.7184C18.1453 14.709 18.1906 14.6678 18.2747 14.6318C18.3612 14.5947 18.4431 14.5826 18.5001 14.5826V18.5826C19.4652 18.5826 20.3145 18.1966 20.9643 17.5468L18.1358 14.7184ZM18.5001 14.5826H1.50006V18.5826H18.5001V14.5826ZM11.0969 7.3602L2.59694 1.7852L0.403178 5.12996L8.90318 10.705L11.0969 7.3602ZM-0.499939 3.45758V15.0826H3.50006V3.45758H-0.499939ZM1.50006 17.0826H18.5001V13.0826H1.50006V17.0826ZM20.5001 15.0826V3.45758H16.5001V15.0826H20.5001ZM17.4032 1.7852L8.90318 7.3602L11.0969 10.705L19.5969 5.12996L17.4032 1.7852ZM11.0886 9.21038L19.4886 3.76038L17.3115 0.404781L8.91149 5.85478L11.0886 9.21038ZM18.4001 0.0825806H1.62506V4.08258H18.4001V0.0825806ZM0.534205 3.7589L8.90921 9.2089L11.0909 5.85627L2.71592 0.406265L0.534205 3.7589ZM3.50006 3.45758V2.08258H-0.499939V3.45758H3.50006ZM-0.499939 2.08258V3.45758H3.50006V2.08258H-0.499939ZM-0.499939 3.45758V15.0826H3.50006V3.45758H-0.499939ZM3.50006 15.0826V3.45758H-0.499939V15.0826H3.50006Z" fill="#6EE0DE" mask="url(#path-1-inside-1_3_393)"/>
</svg>
