<svg width="21" height="20" viewBox="0 0 21 20" fill="none" xmlns="http://www.w3.org/2000/svg">
<path d="M13.6163 19.4374V12.4188H16.2321L16.6238 9.38154H13.6163V7.44247C13.6163 6.56313 13.8604 5.96388 15.1214 5.96388L16.7297 5.96318V3.24667C16.4515 3.20966 15.4968 3.12696 14.3861 3.12696C12.0673 3.12696 10.4798 4.54238 10.4798 7.14168V9.38154H7.85722V12.4188H10.4798V19.4374H2.70206C1.59749 19.4374 0.702057 18.5419 0.702057 17.4374L0.702057 2.0094C0.702057 0.90483 1.59749 0.00939941 2.70206 0.00939941L18.13 0.00939941C19.2346 0.00939941 20.13 0.90483 20.13 2.0094V17.4374C20.13 18.5419 19.2346 19.4374 18.13 19.4374H13.6163Z" fill="white"/>
</svg>
