<svg width="28" height="23" viewBox="0 0 28 23" fill="none" xmlns="http://www.w3.org/2000/svg">
<path d="M26.8759 0.911404C25.7552 1.70346 24.5141 2.30953 23.2004 2.70625C22.4956 1.89593 21.5591 1.32151 20.5173 1.06065C19.4755 0.799794 18.3788 0.865063 17.3753 1.24764C16.3719 1.63022 15.5101 2.31166 14.9064 3.19985C14.3027 4.08804 13.9863 5.14016 13.9998 6.214V7.38455C11.9428 7.43789 9.90441 6.98167 8.06633 6.0565C6.22825 5.13134 4.64751 3.76595 3.46488 2.08196C3.46488 2.08196 -1.21732 12.6169 9.31764 17.2991C6.90692 18.9355 4.03512 19.756 1.12378 19.6402C11.6587 25.493 24.5348 19.6402 24.5348 6.17889C24.534 5.85153 24.5026 5.52496 24.4412 5.20343C25.6352 4.02633 26.4782 2.54025 26.8759 0.911404Z" stroke="#6EE0DE" stroke-width="1.8" stroke-linecap="round" stroke-linejoin="round"/>
</svg>
