<svg width="18" height="18" viewBox="0 0 18 18" fill="none" xmlns="http://www.w3.org/2000/svg">
<path d="M5.7375 9C5.2125 9 4.78125 8.8 4.44375 8.4C4.10625 8 3.9875 7.55 4.0875 7.05L4.65 3.675C4.85 2.6 5.35625 1.71875 6.16875 1.03125C6.98125 0.34375 7.925 0 9 0C10.1 0 11.0563 0.34375 11.8688 1.03125C12.6813 1.71875 13.1875 2.6 13.3875 3.675L13.95 7.05C14.05 7.55 13.9313 8 13.5938 8.4C13.2563 8.8 12.825 9 12.3 9H5.7375ZM6.4125 6.75H11.625L11.175 4.05C11.075 3.525 10.825 3.09375 10.425 2.75625C10.025 2.41875 9.5625 2.25 9.0375 2.25C8.4875 2.25 8.0125 2.41875 7.6125 2.75625C7.2125 3.09375 6.9625 3.525 6.8625 4.05L6.4125 6.75ZM0 18V15.5625C0 13.9375 0.831251 12.625 2.49375 11.625C4.15625 10.625 6.325 10.125 9 10.125C11.7 10.125 13.875 10.625 15.525 11.625C17.175 12.625 18 13.9375 18 15.5625V18H0ZM9 12.375C7 12.375 5.375 12.675 4.125 13.275C2.875 13.875 2.25 14.6375 2.25 15.5625V15.75H15.75V15.525C15.75 14.625 15.1313 13.875 13.8938 13.275C12.6563 12.675 11.025 12.375 9 12.375Z" fill="#6EE0DE"/>
</svg>
