<svg width="16" height="24" viewBox="0 0 16 24" fill="none" xmlns="http://www.w3.org/2000/svg">
<path d="M8.00007 21.6283C8.21926 21.6283 8.40051 21.5542 8.54382 21.406C8.68713 21.2578 8.75879 21.0703 8.75879 20.8437C8.75879 20.617 8.68713 20.4296 8.54382 20.2814C8.40051 20.1332 8.21926 20.0591 8.00007 20.0591C7.78089 20.0591 7.59964 20.1332 7.45633 20.2814C7.31302 20.4296 7.24136 20.617 7.24136 20.8437C7.24136 21.0703 7.31302 21.2578 7.45633 21.406C7.59964 21.5542 7.78089 21.6283 8.00007 21.6283ZM2.43619 18.0977H13.564V4.49833H2.43619V18.0977ZM2.43619 23.5897C2.03154 23.5897 1.67747 23.4328 1.37399 23.119C1.0705 22.8051 0.918762 22.439 0.918762 22.0205V2.14459C0.918762 1.72615 1.0705 1.36002 1.37399 1.04619C1.67747 0.732355 2.03154 0.575439 2.43619 0.575439H13.564C13.9686 0.575439 14.3227 0.732355 14.6262 1.04619C14.9296 1.36002 15.0814 1.72615 15.0814 2.14459V22.0205C15.0814 22.439 14.9296 22.8051 14.6262 23.119C14.3227 23.4328 13.9686 23.5897 13.564 23.5897H2.43619Z" fill="#6EE0DE"/>
</svg>
