<svg width="754" height="250" viewBox="0 0 754 250" fill="none" xmlns="http://www.w3.org/2000/svg">
<rect width="754" height="250" fill="#6EE0DE"/>
<path d="M633.383 77.7352C629.583 77.7352 626.483 74.6352 626.483 70.8352V42.8352C626.483 39.0352 629.583 35.9352 633.383 35.9352C637.183 35.9352 640.283 39.0352 640.283 42.8352V70.8352C640.283 74.6352 637.183 77.7352 633.383 77.7352Z" fill="white"/>
<path d="M215.26 205.276H188.36C185.06 205.276 182.36 202.576 182.36 199.276C182.36 195.976 185.06 193.276 188.36 193.276H215.26C218.56 193.276 221.26 195.976 221.26 199.276C221.36 202.476 218.66 205.276 215.26 205.276Z" fill="white"/>
<path d="M760.626 47.9352H733.726C730.426 47.9352 727.726 45.2352 727.726 41.9352C727.726 38.6352 730.426 35.9352 733.726 35.9352H760.626C763.926 35.9352 766.626 38.6352 766.626 41.9352C766.726 45.1352 764.026 47.9352 760.626 47.9352Z" fill="white"/>
<path d="M60.151 225.269C60.151 230.098 56.227 234.022 51.3975 234.022C46.5681 234.022 42.6441 230.098 42.6441 225.269C42.6441 220.44 46.5681 216.516 51.3975 216.516C56.227 216.516 60.151 220.44 60.151 225.269Z" fill="white"/>
<path d="M327.477 20.4C327.477 23.6 324.877 26.2 321.677 26.2C318.477 26.2 315.877 23.6 315.877 20.4C315.877 17.2 318.477 14.6 321.677 14.6C324.877 14.6 327.477 17.2 327.477 20.4Z" fill="white"/>
<path d="M21.6457 171.484C21.6457 174.684 19.0457 177.284 15.8457 177.284C12.6457 177.284 10.0457 174.684 10.0457 171.484C10.0457 168.284 12.6457 165.684 15.8457 165.684C19.0457 165.684 21.6457 168.284 21.6457 171.484Z" fill="white"/>
<path d="M441.8 54.3C441.8 57.5 439.2 60.1 436 60.1C432.8 60.1 430.2 57.5 430.2 54.3C430.2 51.1 432.8 48.5 436 48.5C439.2 48.5 441.8 51.1 441.8 54.3Z" fill="#A797FC"/>
<path d="M728.368 222.288C729.925 212.694 723.409 203.653 713.814 202.096C704.22 200.539 695.179 207.055 693.622 216.649C692.065 226.244 698.581 235.285 708.175 236.842C717.77 238.399 726.811 231.883 728.368 222.288Z" fill="white"/>
<path d="M121.714 81.1465H74.1142C70.9142 81.1465 68.3142 78.5465 68.3142 75.3465C68.3142 72.1465 70.9142 69.5465 74.1142 69.5465H121.714C124.914 69.5465 127.514 72.1465 127.514 75.3465C127.614 78.5465 125.014 81.1465 121.714 81.1465Z" fill="white"/>
<path d="M592.144 234.293H544.544C541.344 234.293 538.744 232.399 538.744 230.069C538.744 227.739 541.344 225.845 544.544 225.845H592.144C595.344 225.845 597.944 227.739 597.944 230.069C598.044 232.399 595.444 234.293 592.144 234.293Z" fill="white"/>
<path d="M415.269 105.327H407.122V213.327H415.269V105.327Z" fill="#282F39"/>
<path d="M469.367 138.047H327.931V85.3179C327.931 66.6771 343.052 51.5558 361.693 51.5558H435.54C454.181 51.5558 469.302 66.6771 469.302 85.3179V138.047H469.367Z" fill="#A797FC"/>
<path d="M469.367 113.54H327.931V138.047H469.367V113.54Z" fill="#C6C0FF"/>
<path d="M395.912 138.047H327.931V85.3179C327.931 66.6771 343.052 51.5558 361.693 51.5558H362.084C380.725 51.5558 395.847 66.6771 395.847 85.3179V138.047H395.912Z" fill="#E05F45"/>
<path d="M395.912 85.3831V138.112H327.931V85.3831C327.931 66.7422 343.052 51.621 361.693 51.621H362.084C368.733 51.621 374.924 53.5112 380.139 56.8352C389.655 62.7664 395.912 73.3252 395.912 85.3831Z" fill="#8758DA"/>
<path d="M395.912 85.3831V138.112H361.954V80.234C361.954 68.9583 369.71 59.4423 380.204 56.8352C389.655 62.7664 395.912 73.3252 395.912 85.3831Z" fill="#6441AF"/>
<path d="M373.621 138.047H350.287H327.931L304.923 161.054C304.923 161.054 285.109 177.284 322.391 177.284C359.673 177.284 372.708 161.054 372.708 161.054L395.912 138.112H373.621V138.047Z" fill="#A797FC"/>
<path d="M414.748 31.0248H411.62V81.1465H414.748V31.0248Z" fill="#282F39"/>
<path d="M414.748 92.8786C419.464 92.8786 423.286 87.801 423.286 81.5376C423.286 75.2742 419.464 70.1967 414.748 70.1967C410.032 70.1967 406.21 75.2742 406.21 81.5376C406.21 87.801 410.032 92.8786 414.748 92.8786Z" fill="#8758DA"/>
<path d="M453.985 37.4774H411.62V14.6H453.985L443.948 26.0713L453.985 37.4774Z" fill="#F76540"/>
<path d="M432.346 222.126H390.111C387.047 222.126 384.506 219.584 384.506 216.521C384.506 213.457 387.047 210.915 390.111 210.915H432.346C435.409 210.915 437.951 213.457 437.951 216.521C437.951 219.584 435.409 222.126 432.346 222.126Z" fill="#424B56"/>
<path d="M378.528 82.4616L378.933 127.305C378.933 130.866 376.1 133.78 372.538 133.78L291.513 134.509C287.952 134.509 285.038 131.676 285.038 128.195L284.633 83.352C284.633 79.7905 287.466 76.8765 291.028 76.8765L372.053 76.148C375.614 76.067 378.528 78.9001 378.528 82.4616Z" fill="#FFF5BD"/>
<path opacity="0.28" d="M378.69 96.7078L378.933 127.305C378.933 130.866 376.1 133.78 372.538 133.78L291.513 134.509C287.952 134.509 285.038 131.676 285.038 128.195L284.876 94.6033L334.009 119.777L378.69 96.7078Z" fill="#F2AF5C"/>
<path opacity="0.22" d="M284.876 94.6033L315.877 110.549L285.119 129.409L284.876 94.6033Z" fill="#ED7E3D"/>
<path opacity="0.22" d="M378.447 97.0316L349.226 112.33L378.771 128.195L378.447 97.0316Z" fill="#ED7E3D"/>
</svg>
