<svg width="22" height="22" viewBox="0 0 22 22" fill="none" xmlns="http://www.w3.org/2000/svg">
<path d="M2.52556 10.1032H6.05077C5.93069 9.27983 5.69053 8.5036 5.33029 7.77454C4.97005 7.04548 4.52404 6.41506 3.99225 5.88327C3.5977 6.48368 3.26319 7.13554 2.98872 7.83887C2.71425 8.5422 2.55986 9.29699 2.52556 10.1032ZM16.4463 10.1032H19.9715C19.9372 9.29699 19.7828 8.5422 19.5084 7.83887C19.2339 7.13554 18.8994 6.48368 18.5048 5.88327C17.9216 6.46652 17.4627 7.10981 17.1282 7.81314C16.7937 8.51647 16.5664 9.27983 16.4463 10.1032ZM3.99225 15.8414C4.5755 15.2581 5.03438 14.6191 5.36889 13.9244C5.7034 13.2296 5.93069 12.4705 6.05077 11.6471H2.52556C2.55986 12.4534 2.71425 13.2039 2.98872 13.8986C3.26319 14.5934 3.5977 15.241 3.99225 15.8414ZM18.5048 15.8414C18.8994 15.241 19.2339 14.5934 19.5084 13.8986C19.7828 13.2039 19.9372 12.4534 19.9715 11.6471H16.4463C16.5664 12.4705 16.7937 13.2296 17.1282 13.9244C17.4627 14.6191 17.9216 15.2581 18.5048 15.8414ZM7.6204 10.1032H10.4766V2.1522C9.41303 2.27228 8.42236 2.54675 7.50461 2.97561C6.58685 3.40447 5.75915 3.97914 5.02151 4.69962C5.72484 5.40295 6.29951 6.21778 6.74552 7.14412C7.19154 8.07045 7.48316 9.05683 7.6204 10.1032ZM12.0205 10.1032H14.8767C15.0139 9.05683 15.3098 8.07045 15.7644 7.14412C16.219 6.21778 16.798 5.40295 17.5013 4.69962C16.7637 3.97914 15.9317 3.40447 15.0053 2.97561C14.079 2.54675 13.0841 2.27228 12.0205 2.1522V10.1032ZM10.4766 19.5982V11.6471H7.6204C7.48316 12.6936 7.19154 13.6756 6.74552 14.5934C6.29951 15.5112 5.72484 16.3217 5.02151 17.025C5.75915 17.7455 6.5654 18.3245 7.44028 18.7619C8.31515 19.1993 9.32725 19.4781 10.4766 19.5982ZM12.0205 19.5982C13.1698 19.4781 14.1862 19.1993 15.0697 18.7619C15.9531 18.3245 16.7637 17.7455 17.5013 17.025C16.798 16.3217 16.219 15.5112 15.7644 14.5934C15.3098 13.6756 15.0139 12.6936 14.8767 11.6471H12.0205V19.5982ZM11.2485 21.1678C9.82473 21.1678 8.48669 20.8976 7.23442 20.3573C5.98216 19.8169 4.89286 19.0835 3.96652 18.1572C3.04019 17.2309 2.30684 16.1416 1.76648 14.8893C1.22611 13.637 0.955933 12.299 0.955933 10.8752C0.955933 9.45138 1.22611 8.11334 1.76648 6.86107C2.30684 5.6088 3.04019 4.5195 3.96652 3.59317C4.89286 2.66683 5.98216 1.93349 7.23442 1.39312C8.48669 0.852761 9.82473 0.582581 11.2485 0.582581C12.6724 0.582581 14.0104 0.852761 15.2627 1.39312C16.5149 1.93349 17.6042 2.66683 18.5306 3.59317C19.4569 4.5195 20.1902 5.6088 20.7306 6.86107C21.271 8.11334 21.5411 9.45138 21.5411 10.8752C21.5411 12.299 21.271 13.637 20.7306 14.8893C20.1902 16.1416 19.4569 17.2309 18.5306 18.1572C17.6042 19.0835 16.5149 19.8169 15.2627 20.3573C14.0104 20.8976 12.6724 21.1678 11.2485 21.1678Z" fill="#6EE0DE"/>
</svg>
