<svg width="25" height="21" viewBox="0 0 25 21" fill="none" xmlns="http://www.w3.org/2000/svg">
<path d="M24.7021 3.17172C23.8062 3.56945 22.8433 3.8373 21.8327 3.95804C22.8646 3.34014 23.657 2.36104 24.0294 1.19424C23.0645 1.76648 21.9951 2.18247 20.8567 2.4067C19.9466 1.43572 18.6469 0.828979 17.2102 0.828979C13.9847 0.828979 11.6146 3.83832 12.3431 6.96231C8.1923 6.75431 4.51129 4.76567 2.0468 1.74314C0.737946 3.98848 1.36802 6.92578 3.59205 8.4132C2.77427 8.38682 2.00317 8.16259 1.33048 7.7882C1.27569 10.1025 2.93458 12.2677 5.33718 12.7497C4.63405 12.9404 3.86396 12.985 3.08068 12.8349C3.71583 14.8195 5.56039 16.2633 7.7479 16.3038C5.64765 17.9506 3.00154 18.6861 0.351379 18.3736C2.56222 19.7911 5.18905 20.618 8.00967 20.618C17.2852 20.618 22.5257 12.7841 22.2092 5.75796C23.1852 5.05281 24.0324 4.17314 24.7021 3.17172Z" fill="white"/>
</svg>
