<svg width="25" height="18" viewBox="0 0 25 18" fill="none" xmlns="http://www.w3.org/2000/svg">
<path fill-rule="evenodd" clip-rule="evenodd" d="M21.8336 0.72945C19.9235 0.203003 12.2978 0.203003 12.2978 0.203003C12.2978 0.203003 4.68724 0.203003 2.77708 0.699354C1.75432 0.985123 0.912158 1.8273 0.626386 2.8651C0.130035 4.77525 0.130035 8.73102 0.130035 8.73102C0.130035 8.73102 0.130035 12.7018 0.626386 14.5819C0.912158 15.6197 1.73928 16.4468 2.77708 16.7326C4.70228 17.244 12.2978 17.244 12.2978 17.244C12.2978 17.244 19.9235 17.244 21.8336 16.7476C22.8714 16.4619 23.6985 15.6498 23.9692 14.5969C24.4807 12.7018 24.4807 8.74607 24.4807 8.74607C24.4807 8.74607 24.4957 4.77525 23.9692 2.8651C23.6985 1.8273 22.8714 1.00018 21.8336 0.72945ZM9.87624 12.3708V5.07627L16.2084 8.73107L9.87624 12.3708Z" fill="white"/>
</svg>
